<?xml version="1.0" encoding="UTF-8" standalone="no"?>
<!-- Generator: Adobe Illustrator 9.0, SVG Export Plug-In  -->

<svg
   xmlns:dc="http://purl.org/dc/elements/1.1/"
   xmlns:cc="http://creativecommons.org/ns#"
   xmlns:rdf="http://www.w3.org/1999/02/22-rdf-syntax-ns#"
   xmlns:svg="http://www.w3.org/2000/svg"
   xmlns="http://www.w3.org/2000/svg"
   xmlns:sodipodi="http://sodipodi.sourceforge.net/DTD/sodipodi-0.dtd"
   xmlns:inkscape="http://www.inkscape.org/namespaces/inkscape"
   width="42.65pt"
   height="42.649pt"
   viewBox="0 0 42.65 42.649"
   xml:space="preserve"
   id="svg3053"
   version="1.1"
   inkscape:version="0.48.2 r9819"
   sodipodi:docname="bscconnector.svg"><metadata
   id="metadata3097"><rdf:RDF><cc:Work
       rdf:about=""><dc:format>image/svg+xml</dc:format><dc:type
         rdf:resource="http://purl.org/dc/dcmitype/StillImage" /><dc:title></dc:title></cc:Work></rdf:RDF></metadata><defs
   id="defs3095"><clipPath
     clipPathUnits="userSpaceOnUse"
     id="clipPath2999"><path
       inkscape:connector-curvature="0"
       d="M 0,148 148,148 148,0 0,0 0,148 z"
       id="path3001" /></clipPath></defs><sodipodi:namedview
   pagecolor="#ffffff"
   bordercolor="#666666"
   borderopacity="1"
   objecttolerance="10"
   gridtolerance="10"
   guidetolerance="10"
   inkscape:pageopacity="0"
   inkscape:pageshadow="2"
   inkscape:window-width="956"
   inkscape:window-height="853"
   id="namedview3093"
   showgrid="false"
   inkscape:zoom="4.4268331"
   inkscape:cx="26.65625"
   inkscape:cy="26.655624"
   inkscape:window-x="0"
   inkscape:window-y="0"
   inkscape:window-maximized="0"
   inkscape:current-layer="Lager_x0020_1" />
	<g
   id="Lager_x0020_1"
   style="fill-rule:nonzero;clip-rule:nonzero;fill:#F7515D;stroke:#000000;stroke-miterlimit:4;">
		<radialGradient
   id="aigrd1"
   cx="21.3252"
   cy="21.3247"
   r="18.072"
   fx="21.3252"
   fy="21.3247"
   gradientUnits="userSpaceOnUse">
			<stop
   offset="0"
   style="stop-color:#F6F6F6"
   id="stop3057" />
			<stop
   offset="0.2158"
   style="stop-color:#F6F3F3"
   id="stop3059" />
			<stop
   offset="0.3724"
   style="stop-color:#F6EAEB"
   id="stop3061" />
			<stop
   offset="0.5104"
   style="stop-color:#F6DADC"
   id="stop3063" />
			<stop
   offset="0.6376"
   style="stop-color:#F6C3C7"
   id="stop3065" />
			<stop
   offset="0.7574"
   style="stop-color:#F6A7AC"
   id="stop3067" />
			<stop
   offset="0.8716"
   style="stop-color:#F7838B"
   id="stop3069" />
			<stop
   offset="0.9795"
   style="stop-color:#F75A65"
   id="stop3071" />
			<stop
   offset="1"
   style="stop-color:#F7515D"
   id="stop3073" />
		</radialGradient>
		<path
   style="fill:url(#aigrd1);stroke:#F7515D;stroke-width:2;"
   d="M39.397,21.324c0,9.981-8.092,18.072-18.072,18.072S3.253,31.306,3.253,21.324S11.345,3.253,21.325,3.253s18.072,8.09,18.072,18.071z"
   id="path3075" />
		<path
   style="opacity:0.7;fill:#FFFFFF;stroke:none;"
   d="M42.65,21.325c0,11.778-9.548,21.325-21.325,21.325C9.547,42.649,0,33.103,0,21.325C0,9.547,9.547,0,21.325,0C33.103,0,42.65,9.547,42.65,21.325z"
   id="path3077" />
		
	<g
   transform="matrix(0.2716389,0,0,-0.27864525,0.68104459,41.582774)"
   id="g2995"><g
     id="g2997"
     clip-path="url(#clipPath2999)"><g
       id="g3003"
       transform="translate(91.6221,31.9141)"><path
         inkscape:connector-curvature="0"
         d="M 0,0 C -3.705,5.898 -10.278,9.819 -17.76,9.821 -25.241,9.819 -31.813,5.898 -35.519,0 l -4.209,-0.004 c 0.694,0.9 1.497,1.981 2.376,3.225 0.027,0.03 0.059,0.053 0.083,0.087 4.43,5.966 11.511,9.827 19.51,9.827 7.997,0 15.078,-3.861 19.51,-9.825 C 1.797,3.248 1.851,3.199 1.901,3.145 2.745,1.931 3.513,0.878 4.178,-0.004 L 0,0 z m -28.108,18.709 c 3.242,1.124 6.717,1.741 10.349,1.741 3.698,0 7.234,-0.638 10.524,-1.803 0.812,-1.629 1.626,-3.185 2.429,-4.649 -3.882,2.004 -8.287,3.138 -12.953,3.138 -4.6,0 -8.945,-1.104 -12.787,-3.055 0.809,1.457 1.625,3.007 2.438,4.628 m 3.88,8.511 c 2.104,0.351 4.262,0.545 6.468,0.545 2.269,0 4.485,-0.204 6.645,-0.576 0.522,-1.271 1.055,-2.498 1.594,-3.699 -2.646,0.626 -5.405,0.96 -8.238,0.96 -2.769,0 -5.469,-0.317 -8.06,-0.917 0.538,1.197 1.071,2.419 1.591,3.687 m 6.545,21.622 c 1.053,-4.994 2.645,-11.081 4.927,-17.377 -1.643,0.191 -3.311,0.302 -5.004,0.302 -1.636,0 -3.248,-0.103 -4.837,-0.282 2.245,6.227 3.85,12.359 4.914,17.357 M 8.251,1.259 c -2.45,3.128 -7.362,9.942 -12.155,19.675 -0.059,0.158 -0.13,0.311 -0.226,0.45 -1.122,2.303 -2.236,4.764 -3.308,7.378 -3.489,8.502 -5.625,17.078 -6.807,23.283 4.94,1.458 8.547,6.02 8.549,11.432 0,1.645 -0.336,3.223 -0.946,4.657 -0.432,1.015 -1.606,1.491 -2.622,1.058 -1.017,-0.432 -1.491,-1.606 -1.058,-2.622 0.401,-0.951 0.624,-1.989 0.626,-3.093 -0.009,-4.376 -3.549,-7.917 -7.927,-7.923 -4.375,0.006 -7.913,3.547 -7.922,7.923 0.009,4.377 3.547,7.916 7.922,7.924 1.207,0 2.338,-0.266 3.355,-0.742 0.999,-0.468 2.191,-0.037 2.66,0.964 0.467,0.999 0.035,2.192 -0.964,2.66 l -0.002,0 c -1.532,0.717 -3.25,1.118 -5.047,1.118 -6.587,0 -11.923,-5.339 -11.925,-11.924 0.002,-5.373 3.555,-9.913 8.439,-11.404 -1.201,-6.207 -3.383,-14.966 -6.812,-23.311 -1.053,-2.568 -2.152,-4.975 -3.264,-7.243 -0.153,-0.201 -0.265,-0.428 -0.334,-0.67 -2.8,-5.626 -5.658,-10.293 -8.048,-13.805 -1.721,-2.525 -3.199,-4.466 -4.242,-5.767 -0.52,-0.653 -0.933,-1.144 -1.212,-1.468 -0.279,-0.327 -0.411,-0.469 -0.411,-0.471 -0.531,-0.584 -0.669,-1.433 -0.348,-2.155 0.319,-0.723 1.04,-1.19 1.831,-1.19 l 9.572,0.01 c 0.728,0 1.397,0.396 1.749,1.033 2.893,5.238 8.461,8.785 14.866,8.783 6.406,0.002 11.975,-3.545 14.865,-8.783 0.351,-0.637 1.022,-1.033 1.749,-1.033 l 9.484,-0.01 0.005,0 c 0.787,0 1.499,0.46 1.822,1.179 0.324,0.721 0.196,1.557 -0.328,2.147 -0.002,0.002 -0.568,0.639 -1.586,1.94 M -34.95,52.932 c 0.39,-0.392 0.902,-0.588 1.414,-0.588 0.512,0 1.023,0.196 1.413,0.585 0.782,0.783 0.782,2.05 0.002,2.83 -2.13,2.13 -3.187,4.904 -3.189,7.694 0.002,2.793 1.057,5.565 3.187,7.697 0.782,0.78 0.782,2.047 0,2.828 -0.78,0.78 -2.048,0.78 -2.827,0 -2.904,-2.9 -4.362,-6.722 -4.36,-10.525 -0.002,-3.801 1.456,-7.622 4.36,-10.521 m -6.807,-6.81 c 0.391,-0.39 0.903,-0.586 1.414,-0.586 0.512,0 1.024,0.195 1.414,0.586 0.78,0.78 0.78,2.046 0,2.828 -4.009,4.011 -6.005,9.249 -6.008,14.503 0.003,5.256 1.999,10.494 6.008,14.505 0.78,0.779 0.78,2.046 0,2.828 -0.782,0.779 -2.048,0.779 -2.828,0 -4.782,-4.781 -7.181,-11.067 -7.18,-17.333 -0.001,-6.264 2.398,-12.549 7.18,-17.331 m -3.979,-3.98 c -5.89,5.891 -8.827,13.592 -8.829,21.311 0.002,7.72 2.939,15.421 8.829,21.312 0.78,0.781 0.78,2.046 0,2.827 -0.784,0.782 -2.048,0.782 -2.829,0 l 0,0.002 c -6.664,-6.662 -10.001,-15.41 -9.999,-24.141 -0.002,-8.73 3.335,-17.478 9.999,-24.139 0.39,-0.39 0.903,-0.585 1.416,-0.585 0.51,0 1.021,0.194 1.413,0.584 0.78,0.783 0.78,2.048 0,2.829 M -3.121,52.93 c 0.391,-0.391 0.902,-0.586 1.414,-0.586 0.513,0 1.024,0.195 1.415,0.586 2.899,2.902 4.357,6.721 4.355,10.524 0.002,3.801 -1.454,7.623 -4.355,10.524 -0.781,0.78 -2.048,0.78 -2.829,0 -0.78,-0.781 -0.78,-2.048 0,-2.829 2.128,-2.131 3.184,-4.902 3.185,-7.695 -0.001,-2.792 -1.059,-5.564 -3.185,-7.695 -0.782,-0.781 -0.782,-2.048 0,-2.829 M 9.692,63.454 C 9.689,58.199 7.693,52.961 3.686,48.951 c -0.783,-0.783 -0.783,-2.048 0,-2.831 0.39,-0.39 0.902,-0.585 1.414,-0.585 0.511,0 1.024,0.195 1.415,0.587 4.781,4.782 7.18,11.066 7.178,17.332 0.002,6.266 -2.397,12.551 -7.178,17.332 -0.782,0.78 -2.049,0.78 -2.829,0 -0.783,-0.781 -0.781,-2.049 0,-2.829 4.007,-4.01 6.003,-9.249 6.006,-14.503 m 3.629,24.138 c -0.779,0.782 -2.046,0.782 -2.827,0 -0.781,-0.779 -0.781,-2.047 0,-2.828 5.889,-5.889 8.824,-13.59 8.829,-21.31 -0.005,-7.722 -2.942,-15.422 -8.829,-21.311 -0.781,-0.781 -0.781,-2.049 0,-2.83 0.391,-0.391 0.902,-0.586 1.415,-0.586 0.512,0 1.025,0.195 1.415,0.586 6.66,6.661 9.999,15.411 9.996,24.141 0.003,8.729 -3.336,17.48 -9.999,24.138"
         style="fill:#6a6b74;fill-opacity:1;fill-rule:nonzero;stroke:none"
         id="path3005" /></g></g></g></g>
</svg>